<svg width="24" height="12" viewBox="0 0 24 12" fill="none" xmlns="http://www.w3.org/2000/svg">
<path d="M4.03125 5.00977H1.86914L1.85742 4.10156H3.82031C4.14453 4.10156 4.42773 4.04688 4.66992 3.9375C4.91211 3.82812 5.09961 3.67188 5.23242 3.46875C5.36914 3.26172 5.4375 3.01562 5.4375 2.73047C5.4375 2.41797 5.37695 2.16406 5.25586 1.96875C5.13867 1.76953 4.95703 1.625 4.71094 1.53516C4.46875 1.44141 4.16016 1.39453 3.78516 1.39453H2.12109V9H0.990234V0.46875H3.78516C4.22266 0.46875 4.61328 0.513672 4.95703 0.603516C5.30078 0.689453 5.5918 0.826172 5.83008 1.01367C6.07227 1.19727 6.25586 1.43164 6.38086 1.7168C6.50586 2.00195 6.56836 2.34375 6.56836 2.74219C6.56836 3.09375 6.47852 3.41211 6.29883 3.69727C6.11914 3.97852 5.86914 4.20898 5.54883 4.38867C5.23242 4.56836 4.86133 4.68359 4.43555 4.73438L4.03125 5.00977ZM3.97852 9H1.42383L2.0625 8.08008H3.97852C4.33789 8.08008 4.64258 8.01758 4.89258 7.89258C5.14648 7.76758 5.33984 7.5918 5.47266 7.36523C5.60547 7.13477 5.67188 6.86328 5.67188 6.55078C5.67188 6.23438 5.61523 5.96094 5.50195 5.73047C5.38867 5.5 5.21094 5.32227 4.96875 5.19727C4.72656 5.07227 4.41406 5.00977 4.03125 5.00977H2.41992L2.43164 4.10156H4.63477L4.875 4.42969C5.28516 4.46484 5.63281 4.58203 5.91797 4.78125C6.20312 4.97656 6.41992 5.22656 6.56836 5.53125C6.7207 5.83594 6.79688 6.17188 6.79688 6.53906C6.79688 7.07031 6.67969 7.51953 6.44531 7.88672C6.21484 8.25 5.88867 8.52734 5.4668 8.71875C5.04492 8.90625 4.54883 9 3.97852 9ZM9.48047 0V9H8.39062V0H9.48047ZM10.9336 5.90039V5.76562C10.9336 5.30859 11 4.88477 11.1328 4.49414C11.2656 4.09961 11.457 3.75781 11.707 3.46875C11.957 3.17578 12.2598 2.94922 12.6152 2.78906C12.9707 2.625 13.3691 2.54297 13.8105 2.54297C14.2559 2.54297 14.6562 2.625 15.0117 2.78906C15.3711 2.94922 15.6758 3.17578 15.9258 3.46875C16.1797 3.75781 16.373 4.09961 16.5059 4.49414C16.6387 4.88477 16.7051 5.30859 16.7051 5.76562V5.90039C16.7051 6.35742 16.6387 6.78125 16.5059 7.17188C16.373 7.5625 16.1797 7.9043 15.9258 8.19727C15.6758 8.48633 15.373 8.71289 15.0176 8.87695C14.666 9.03711 14.2676 9.11719 13.8223 9.11719C13.377 9.11719 12.9766 9.03711 12.6211 8.87695C12.2656 8.71289 11.9609 8.48633 11.707 8.19727C11.457 7.9043 11.2656 7.5625 11.1328 7.17188C11 6.78125 10.9336 6.35742 10.9336 5.90039ZM12.0176 5.76562V5.90039C12.0176 6.2168 12.0547 6.51562 12.1289 6.79688C12.2031 7.07422 12.3145 7.32031 12.4629 7.53516C12.6152 7.75 12.8047 7.91992 13.0312 8.04492C13.2578 8.16602 13.5215 8.22656 13.8223 8.22656C14.1191 8.22656 14.3789 8.16602 14.6016 8.04492C14.8281 7.91992 15.0156 7.75 15.1641 7.53516C15.3125 7.32031 15.4238 7.07422 15.498 6.79688C15.5762 6.51562 15.6152 6.2168 15.6152 5.90039V5.76562C15.6152 5.45312 15.5762 5.1582 15.498 4.88086C15.4238 4.59961 15.3105 4.35156 15.1582 4.13672C15.0098 3.91797 14.8223 3.74609 14.5957 3.62109C14.373 3.49609 14.1113 3.43359 13.8105 3.43359C13.5137 3.43359 13.252 3.49609 13.0254 3.62109C12.8027 3.74609 12.6152 3.91797 12.4629 4.13672C12.3145 4.35156 12.2031 4.59961 12.1289 4.88086C12.0547 5.1582 12.0176 5.45312 12.0176 5.76562ZM22.1719 2.66016H23.1562V8.86523C23.1562 9.42383 23.043 9.90039 22.8164 10.2949C22.5898 10.6895 22.2734 10.9883 21.8672 11.1914C21.4648 11.3984 21 11.502 20.4727 11.502C20.2539 11.502 19.9961 11.4668 19.6992 11.3965C19.4062 11.3301 19.1172 11.2148 18.832 11.0508C18.5508 10.8906 18.3145 10.6738 18.123 10.4004L18.6914 9.75586C18.957 10.0762 19.2344 10.2988 19.5234 10.4238C19.8164 10.5488 20.1055 10.6113 20.3906 10.6113C20.7344 10.6113 21.0312 10.5469 21.2812 10.418C21.5312 10.2891 21.7246 10.0977 21.8613 9.84375C22.002 9.59375 22.0723 9.28516 22.0723 8.91797V4.05469L22.1719 2.66016ZM17.8066 5.90039V5.77734C17.8066 5.29297 17.8633 4.85352 17.9766 4.45898C18.0938 4.06055 18.2598 3.71875 18.4746 3.43359C18.6934 3.14844 18.957 2.92969 19.2656 2.77734C19.5742 2.62109 19.9219 2.54297 20.3086 2.54297C20.707 2.54297 21.0547 2.61328 21.3516 2.75391C21.6523 2.89062 21.9062 3.0918 22.1133 3.35742C22.3242 3.61914 22.4902 3.93555 22.6113 4.30664C22.7324 4.67773 22.8164 5.09766 22.8633 5.56641V6.10547C22.8203 6.57031 22.7363 6.98828 22.6113 7.35938C22.4902 7.73047 22.3242 8.04688 22.1133 8.30859C21.9062 8.57031 21.6523 8.77148 21.3516 8.91211C21.0508 9.04883 20.6992 9.11719 20.2969 9.11719C19.918 9.11719 19.5742 9.03711 19.2656 8.87695C18.9609 8.7168 18.6992 8.49219 18.4805 8.20312C18.2617 7.91406 18.0938 7.57422 17.9766 7.18359C17.8633 6.78906 17.8066 6.36133 17.8066 5.90039ZM18.8906 5.77734V5.90039C18.8906 6.2168 18.9219 6.51367 18.9844 6.79102C19.0508 7.06836 19.1504 7.3125 19.2832 7.52344C19.4199 7.73438 19.5938 7.90039 19.8047 8.02148C20.0156 8.13867 20.2676 8.19727 20.5605 8.19727C20.9199 8.19727 21.2168 8.12109 21.4512 7.96875C21.6855 7.81641 21.8711 7.61523 22.0078 7.36523C22.1484 7.11523 22.2578 6.84375 22.3359 6.55078V5.13867C22.293 4.92383 22.2266 4.7168 22.1367 4.51758C22.0508 4.31445 21.9375 4.13477 21.7969 3.97852C21.6602 3.81836 21.4902 3.69141 21.2871 3.59766C21.084 3.50391 20.8457 3.45703 20.5723 3.45703C20.2754 3.45703 20.0195 3.51953 19.8047 3.64453C19.5938 3.76562 19.4199 3.93359 19.2832 4.14844C19.1504 4.35938 19.0508 4.60547 18.9844 4.88672C18.9219 5.16406 18.8906 5.46094 18.8906 5.77734Z" fill="black"/>
</svg>
